<?xml version="1.0" encoding="UTF-8"?>
<svg version="1.1" xmlns="http://www.w3.org/2000/svg" width="3384" height="3127">
<path d="M0 0 C3.82243165 0.48559264 7.64560919 0.96439098 11.46972656 1.43652344 C30.44079324 3.77939536 49.37278402 6.19821745 68.18212891 9.63134766 C69.47622681 9.86746765 70.77032471 10.10358765 72.1036377 10.34686279 C101.30531806 15.86857015 134.91885351 25.43386712 157.75634766 45.47900391 C158.56330078 46.09001953 159.37025391 46.70103516 160.20166016 47.33056641 C168.21902008 54.07299448 173.66594273 63.55554285 176.75634766 73.47900391 C176.75634766 74.46900391 176.75634766 75.45900391 176.75634766 76.47900391 C175.45076904 76.49358643 174.14519043 76.50816895 172.80004883 76.52319336 C167.91127455 76.58159047 163.0229411 76.65881796 158.13452148 76.74145508 C156.02717292 76.77451089 153.91973993 76.80260167 151.81225586 76.82543945 C148.76591332 76.85934381 145.72033116 76.91167447 142.67431641 76.96728516 C141.74677048 76.97367508 140.81922455 76.980065 139.86357117 76.98664856 C119.49664545 77.43453749 102.90597452 89.41065813 86.32275391 99.99072266 C81.56520961 103.01228424 76.72404242 105.8185429 71.75634766 108.47900391 C68.29754366 101.56139591 70.6583249 89.4254306 72.73291016 82.30712891 C77.3236338 69.62131244 86.15958263 59.66470723 96.75634766 51.47900391 C97.41634766 51.47900391 98.07634766 51.47900391 98.75634766 51.47900391 C99.96057758 46.38046004 99.96057758 46.38046004 98.19384766 41.60400391 C95.0922101 38.90001219 93.89480595 38.32572767 89.75634766 38.47900391 C76.60138932 42.84881706 67.09241549 53.98204175 60.75634766 65.85400391 C48.60153566 91.21365093 45.29461254 118.55755378 47.56884766 146.35400391 C47.65577881 147.45897217 47.74270996 148.56394043 47.83227539 149.70239258 C48.63228615 159.57883887 49.62021165 169.43582602 50.70288086 179.28515625 C51.44203059 186.26877954 51.94348615 193.22941237 52.27001953 200.24316406 C52.33456502 201.61988612 52.33456502 201.61988612 52.40041447 203.02442074 C52.78199183 211.48542839 53.00651244 219.94582015 53.17163086 228.41348267 C53.22333025 231.06119798 53.27861829 233.7088197 53.3347168 236.35644531 C53.41472427 240.13882484 53.49364021 243.92122456 53.57174683 247.7036438 C55.31414524 331.55685623 58.04392738 412.83175718 79.82736206 494.24432373 C86.83673107 520.45855898 91.13529133 545.35009839 91.69335938 572.54248047 C91.7476191 575.07207732 91.82616008 577.59895069 91.91650391 580.12744141 C91.96097656 581.97208984 91.96097656 581.97208984 92.00634766 583.85400391 C92.03212891 584.85173828 92.05791016 585.84947266 92.08447266 586.87744141 C91.68250856 590.06444245 90.63838274 591.89678041 88.75634766 594.47900391 C83.89876062 597.8330521 79.4591395 598.26033129 73.75634766 597.47900391 C61.36698208 594.56062002 49.77303496 586.08045423 42.75634766 575.47900391 C39.68463287 568.29150706 37.82466913 561.02358121 36.42431641 553.35791016 C36.2271553 552.31834167 36.0299942 551.27877319 35.82685852 550.20770264 C35.18841503 546.82088041 34.56498639 543.43153966 33.94384766 540.04150391 C33.7250293 538.8604306 33.50621094 537.6793573 33.28076172 536.4624939 C27.88447644 507.32456038 23.16680303 478.14686707 19.20947266 448.77978516 C19.09819031 447.95427721 18.98690796 447.12876926 18.87225342 446.27824593 C17.74676008 437.92075557 16.62936618 429.56228098 15.53570938 421.20056057 C15.12228525 418.0448621 14.70473074 414.88971667 14.28670502 411.73462486 C14.09317405 410.26487327 13.90168737 408.79485067 13.71250153 407.32453346 C12.23530402 390.0651586 12.23530402 390.0651586 5.75634766 374.47900391 C2.61292773 372.90729394 -0.80136686 373.24724607 -4.24365234 373.47900391 C-5.23365234 373.80900391 -6.22365234 374.13900391 -7.24365234 374.47900391 C-7.42533594 383.0044475 -6.99070673 391.17178847 -5.77832031 399.60766602 C-5.62214737 400.74511765 -5.46597443 401.88256927 -5.30506897 403.05448914 C-4.79020713 406.78963235 -4.26301994 410.52292494 -3.73583984 414.25634766 C-3.36824838 416.90756948 -3.00139353 419.55888285 -2.63552856 422.21034241 C-1.76771759 428.48845733 -0.89129159 434.76533572 -0.01139939 441.04176766 C1.53904297 452.10414761 3.07234021 463.1689191 4.60717463 474.23347342 C5.07519525 477.60725431 5.54363362 480.9809761 6.01303864 484.35456467 C9.40184309 508.71136878 12.63734912 533.08624348 15.75634766 557.47900391 C5.73407606 557.54394146 0.24996427 555.24275911 -6.94189453 548.23828125 C-11.97537412 543.15414563 -16.90096009 537.95515473 -21.51708984 532.48681641 C-23.35527356 530.34920005 -25.26191005 528.28203012 -27.18017578 526.21630859 C-31.97044779 521.05530271 -36.54030034 515.78206894 -40.95458984 510.29150391 C-42.93709957 507.85565578 -44.96773338 505.47227342 -47.02441406 503.09912109 C-54.24949783 494.72715698 -60.83384562 485.89289117 -67.39013672 476.99267578 C-69.13008887 474.63301464 -70.88147225 472.28224714 -72.63427734 469.93212891 C-80.84097149 458.84479291 -88.18353892 447.32452382 -95.24365234 435.47900391 C-95.74751465 434.64030762 -96.25137695 433.80161133 -96.77050781 432.9375 C-128.573144 379.75372279 -142.20072392 323.66162461 -150.97064209 263.09667969 C-152.19049445 254.67266548 -153.41899077 246.24997669 -154.66210365 237.82936287 C-155.08886097 234.9200437 -155.50633752 232.00949883 -155.92314148 229.09873962 C-156.98504518 214.73998979 -156.98504518 214.73998979 -163.21574402 202.76145935 C-166.48861419 200.69168622 -169.50157663 200.80420337 -173.24365234 201.47900391 C-175.89063954 202.87585397 -175.89063954 202.87585397 -177.24365234 205.47900391 C-177.70749616 212.12743191 -176.50392503 218.66175308 -175.55615234 225.22900391 C-175.28000811 227.17004459 -175.00386859 229.11108596 -174.72792053 231.05215454 C-174.5334485 232.4173098 -174.33823422 233.7823595 -174.14231873 235.14730835 C-173.5380068 239.36572089 -172.95662981 243.5865116 -172.39437866 247.81072998 C-160.08984274 340.21062999 -130.8361427 430.55034701 -25.24365234 552.47900391 C-24.28716797 553.32462891 -23.33068359 554.17025391 -22.34521484 555.04150391 C-1.78396714 573.14477735 20.99332002 588.87539714 44.75634766 602.47900391 C45.73740479 603.04167969 45.73740479 603.04167969 46.73828125 603.61572266 C54.01746542 607.7683584 61.35444689 611.78482239 68.82666016 615.58056641 C86.03874505 624.32872699 102.19529093 633.70614713 116.75634766 646.47900391 C117.61615234 647.22923828 118.47595703 647.97947266 119.36181641 648.75244141 C121.85659271 650.96414929 124.31210259 653.21169914 126.75634766 655.47900391 C127.39830078 656.05521484 128.04025391 656.63142578 128.70166016 657.22509766 C140.48461433 668.29318641 149.45225631 682.1675847 156.75634766 696.47900391 C157.33513672 697.58501953 157.91392578 698.69103516 158.51025391 699.83056641 C166.42999985 715.81706054 171.71399623 733.12794348 177.20654297 750.05932617 C181.7228466 763.94428336 186.72449532 777.55139841 193.87744141 790.32666016 C199.58483075 800.58600648 200.41330949 808.82502409 197.41113281 820.24145508 C196.31654422 824.03010323 195.04258816 827.75187081 193.75634766 831.47900391 C193.4452002 832.40116699 193.13405273 833.32333008 192.81347656 834.2734375 C179.41220669 873.78800179 157.22704784 938.90254914 117.75634766 960.47900391 C108.60066702 964.16117982 98.51841122 963.58769113 89.50244141 959.77978516 C88.59623047 959.35052734 87.69001953 958.92126953 86.75634766 958.47900391 C85.79857422 958.03943359 84.84080078 957.59986328 83.85400391 957.14697266 C66.78577631 948.64514428 52.12376278 935.90553419 38.75634766 922.47900391 C38.22493164 921.95016602 37.69351562 921.42132812 37.14599609 920.87646484 C17.77424647 901.40530919 3.4230449 877.45608157 -10.68896484 854.08544922 C-17.73293555 842.46007244 -25.36282197 831.77259959 -34.24365234 821.47900391 C-34.79126221 820.83858154 -35.33887207 820.19815918 -35.90307617 819.53833008 C-46.79439812 806.91896158 -58.64703814 795.15867716 -72.24365234 785.47900391 C-72.90381348 785.00688477 -73.56397461 784.53476563 -74.24414062 784.04833984 C-119.81507669 751.81446237 -173.24446732 739.45003227 -227.05615234 728.47900391 C-228.00101501 728.28323761 -228.94587769 728.08747131 -229.91937256 727.88577271 C-256.12106293 722.48468 -278.46046973 721.93066107 -302.19677734 736.40478516 C-320.66281657 748.97589647 -334.96343399 767.18581482 -339.24365234 789.47900391 C-340.33729232 797.1079119 -340.80396024 804.78965778 -341.24365234 812.47900391 C-341.35556784 814.30322656 -341.46754467 816.12744546 -341.57958984 817.95166016 C-341.82765571 822.12636857 -342.04547545 826.30164354 -342.24365234 830.47900391 C-344.24365234 829.47900391 -344.24365234 829.47900391 -344.82202148 827.74829102 C-344.97276123 827.00844971 -345.12350098 826.2686084 -345.27880859 825.50634766 C-345.44832031 824.6884375 -345.61783203 823.87052734 -345.79248047 823.02783203 C-345.96199219 822.16609375 -346.13150391 821.30435547 -346.30615234 820.41650391 C-346.47953125 819.58183594 -346.65291016 818.74716797 -346.83154297 817.88720703 C-351.05025262 797.1492588 -351.86468293 772.04374995 -346.24365234 751.47900391 C-346.00146973 750.59051758 -345.75928711 749.70203125 -345.50976562 748.78662109 C-337.96778485 722.18204946 -324.70106707 699.85485255 -306.68652344 679.14404297 C-305.19097528 677.41821583 -303.70992326 675.68082212 -302.23193359 673.93994141 C-297.63553213 668.53292997 -293.00577922 663.18532594 -288.18115234 657.97900391 C-282.49111595 651.76177564 -277.34593927 645.17910287 -272.24365234 638.47900391 C-271.55287598 637.58157471 -271.55287598 637.58157471 -270.84814453 636.66601562 C-257.89833264 619.79133082 -247.53683677 601.48507861 -240.24365234 581.47900391 C-236.98277771 584.64467052 -233.9727794 587.91255798 -231.04663086 591.38818359 C-219.13378572 605.50905333 -206.27656694 618.68152084 -191.24365234 629.47900391 C-190.61104492 629.9346875 -189.9784375 630.39037109 -189.32666016 630.85986328 C-169.22567291 645.22478763 -147.52881329 656.42263612 -125.42724609 667.36181641 C-112.08615097 673.96516501 -98.87774569 680.57982939 -86.24365234 688.47900391 C-85.39931641 688.99785156 -84.55498047 689.51669922 -83.68505859 690.05126953 C-71.68137564 697.43225756 -60.19312628 705.18818407 -49.16357422 713.96044922 C-47.30352676 715.43164647 -45.426318 716.87695056 -43.54052734 718.31494141 C-36.39272704 723.79115725 -29.69068399 729.59334235 -23.13818359 735.76806641 C-20.81849894 737.94061856 -18.47231868 740.04130479 -16.05615234 742.10400391 C-8.51726878 748.64088395 -1.69268068 755.87931907 4.75634766 763.47900391 C5.54267578 764.37619141 6.32900391 765.27337891 7.13916016 766.19775391 C27.87972143 790.01771669 44.78961781 817.00667811 58.13134766 845.60400391 C58.45063232 846.28736816 58.76991699 846.97073242 59.09887695 847.67480469 C60.55604013 850.81785615 61.97117197 853.9721539 63.33056641 857.15869141 C65.87260768 863.43875037 65.87260768 863.43875037 71.31884766 866.85400391 C74.55420377 866.50105597 76.79639835 865.74393951 79.75634766 864.47900391 C81.98110516 849.08226942 72.97085892 832.70004276 65.84960938 819.50488281 C64.69922152 817.37314579 63.57418124 815.22895384 62.44775391 813.08447266 C49.0526828 787.94904762 30.51957857 765.81694148 11.19189453 745.03222656 C9.6764835 743.39259307 8.17629039 741.73995968 6.67822266 740.08447266 C1.99836897 734.92819151 -2.65330731 729.87156463 -8.00927734 725.40087891 C-10.43756978 723.31220779 -12.75166272 721.12721507 -15.07568359 718.92407227 C-22.45551035 711.94720173 -30.15399222 705.60903025 -38.24365234 699.47900391 C-39.54717648 698.47918474 -40.8505584 697.47918013 -42.15380859 696.47900391 C-68.40949674 676.44008423 -96.98006947 660.38783954 -126.93115234 646.54785156 C-151.11087175 635.37187906 -173.57114308 623.65504342 -193.20849609 605.36181641 C-194.90274797 603.79438952 -196.62064295 602.34411183 -198.43115234 600.91650391 C-202.10999279 597.72817552 -205.14949101 594.22986105 -208.24365234 590.47900391 C-208.85732666 589.74182129 -208.85732666 589.74182129 -209.48339844 588.98974609 C-234.6593788 558.57222427 -244.91200422 523.50063231 -250.53344727 485.0246582 C-251.90927804 475.94075687 -253.77461601 467.00994622 -255.74365234 458.04150391 C-257.97672766 447.82878038 -260.02007272 437.63811896 -261.55615234 427.29150391 C-261.77658203 425.82789429 -261.77658203 425.82789429 -262.00146484 424.3347168 C-264.53560454 406.3811068 -265.6291182 388.47450836 -265.55615234 370.35400391 C-265.55291962 368.89148193 -265.55291962 368.89148193 -265.54962158 367.39941406 C-265.42981681 333.42194945 -260.57012392 300.61753231 -249.24365234 268.47900391 C-249.00710938 267.78661621 -248.77056641 267.09422852 -248.52685547 266.38085938 C-242.30852687 248.21703142 -233.87042995 230.93044146 -224.29223633 214.32519531 C-213.08696617 194.87112117 -203.28956877 174.74620178 -193.99462891 154.32226562 C-192.11585561 150.1943262 -190.22273729 146.07302209 -188.32958984 141.95166016 C-181.42762846 126.91454261 -174.59401264 111.84852097 -167.84545898 96.74194336 C-163.89762885 87.91216785 -159.89038081 79.1109531 -155.84399414 70.32592773 C-153.56038165 65.36637963 -151.30742328 60.39704308 -149.12207031 55.39331055 C-146.25336353 49.14163465 -143.22835112 46.47135329 -137.24365234 43.47900391 C-135.72177373 46.52276113 -135.84513016 49.76718033 -135.63037109 53.11572266 C-135.51847126 54.72578257 -135.40606305 56.3358072 -135.29321289 57.94580078 C-135.23467133 58.79650146 -135.17612976 59.64720215 -135.11581421 60.52368164 C-131.26560211 115.62670065 -121.48890501 168.44261992 -95.99365234 217.91650391 C-95.37526489 219.13370117 -95.37526489 219.13370117 -94.74438477 220.37548828 C-92.28510311 225.04767457 -90.29097661 228.00788185 -85.43115234 230.35400391 C-81.90713559 230.55537629 -79.34410857 229.02923202 -76.24365234 227.47900391 C-73.92040945 225.56607977 -73.92040945 225.56607977 -73.84912109 222.27197266 C-74.31505407 217.79255756 -75.99061597 215.31756948 -78.55615234 211.79150391 C-86.24459003 200.35443337 -90.58721147 187.36426845 -95.24365234 174.47900391 C-95.62827637 173.4202002 -96.01290039 172.36139648 -96.40917969 171.27050781 C-112.69842911 125.90005051 -127.74194605 59.27175766 -108.36865234 12.47900391 C-103.99842116 3.73854153 -99.0996949 -1.42955233 -89.74365234 -4.77099609 C-61.01315488 -10.92753127 -28.73995222 -3.65293894 0 0 Z " fill="#383838" transform="translate(957.24365234375,991.52099609375)"/>
<path d="M0 0 C1.1765918 0.29511475 1.1765918 0.29511475 2.37695312 0.59619141 C61.33270251 15.49432519 98.97852933 54.82891102 131.67822266 103.54541016 C176.95121777 171.64595046 176.95121777 171.64595046 245.32177734 213.49267578 C254.3692869 216.75292163 261.93139007 220.29490085 267.05981445 228.74658203 C272.1479258 240.94166583 265.36988961 255.6426985 261.3125 267.125 C255.22228579 284.6396268 249.68411587 302.23690168 247.25 320.6875 C247.13785156 321.46287109 247.02570313 322.23824219 246.91015625 323.03710938 C246.5825087 325.35569765 246.28441301 327.67573558 246 330 C245.85643066 331.14069946 245.85643066 331.14069946 245.70996094 332.30444336 C241.26802274 371.28284903 248.23105414 412.37302425 266.91113281 446.97851562 C268.05149496 449.09560052 269.16205598 451.22695287 270.2734375 453.359375 C274.46305859 461.2598279 278.99204126 468.46857788 284.4375 475.5625 C291.20885973 484.44199044 295.35316216 494.09541732 299.5625 504.3828125 C301.55730049 509.1577459 303.65442939 513.99813096 307 518 C309.92911143 519.40542699 309.92911143 519.40542699 313 519 C316.72843964 517.26655125 316.72843964 517.26655125 319 514 C319.62085999 507.69119646 317.83368247 503.48690674 315.18359375 497.94140625 C314.78103867 497.07455704 314.37848358 496.20770782 313.96372986 495.31459045 C309.62563519 486.04470053 305.07240148 476.87746924 300.47094727 467.73608398 C299.06259067 464.93768017 297.66070504 462.13610756 296.25976562 459.33398438 C291.02749884 448.89013802 285.6861191 438.510658 280.21362305 428.19067383 C266.91480726 403.0897411 256.98909562 380.00666079 261.9375 351.0625 C262.15639893 349.77472656 262.37529785 348.48695313 262.60083008 347.16015625 C270.28444277 302.8528745 281.69991844 259.76020062 295.875 217.1171875 C296.30406143 215.81994247 296.30406143 215.81994247 296.74179077 214.49649048 C297.01004669 213.69697968 297.27830261 212.89746887 297.5546875 212.07373047 C297.78655762 211.38004364 298.01842773 210.68635681 298.25732422 209.97164917 C299.03831743 207.89827522 299.97659778 205.96361524 301 204 C301.66 204 302.32 204 303 204 C303.47308594 204.969375 303.94617187 205.93875 304.43359375 206.9375 C316.40484577 231.28804518 330.58165206 253.1384708 348 274 C348.84038818 275.01280029 349.68077637 276.02560059 350.54663086 277.0690918 C357.72217787 285.63057077 365.3483605 293.63046761 373.28320312 301.48901367 C375.26761113 303.45494718 377.2436814 305.4289848 379.21875 307.40429688 C385.30937419 313.47817823 391.40825572 319.46545778 398 325 C399.20350401 326.04494195 400.40531897 327.09183231 401.60546875 328.140625 C412.90687001 337.96726488 412.90687001 337.96726488 424.35107422 347.62646484 C425.48687425 348.57257248 426.61848114 349.52372921 427.74658203 350.47900391 C440.12039876 360.96882693 440.12039876 360.96882693 455.6875 364.1875 C461.70841869 363.10848231 465.70323239 359.09595634 469.24609375 354.3203125 C476.4504917 341.70560791 477.37384155 324.36678606 479.4375 310.25 C479.73858799 308.23120686 480.04018994 306.21249032 480.34228516 304.19384766 C482.49354047 289.7496432 484.54096007 275.29026597 486.48999023 260.81738281 C486.63380882 259.75654984 486.63380882 259.75654984 486.78053284 258.67428589 C487.03516162 256.79272276 487.28698456 254.9107805 487.53857422 253.02880859 C487.90499335 250.62362566 488.348781 248.34020561 489 246 C501.84446098 251.27329935 510.41762545 269.59912568 515.62109375 281.3671875 C517.23262638 285.61286837 518.55433327 289.87108785 519.75 294.25 C519.94875732 294.9630127 520.14751465 295.67602539 520.35229492 296.41064453 C523.97224189 310.58321016 524.38158052 325.20575518 524.3125 339.75 C524.31001251 340.59615875 524.30752502 341.4423175 524.30496216 342.31411743 C523.95984388 418.89182992 494.97844361 489.46075129 465.7434082 558.92651367 C459.78267101 573.09193436 453.92740505 587.29857418 448.125 601.52954102 C437.37992133 627.86397926 437.37992133 627.86397926 430.62109375 631.16015625 C421.24599569 634.16409974 412.38024771 631.16825254 403.34472656 628.42480469 C388.27357419 623.89120601 372.66925311 621.3532828 357 620 C356.04158203 619.90807373 355.08316406 619.81614746 354.09570312 619.72143555 C345.8198558 619.03668808 337.6274029 618.96016313 329.328125 619.04296875 C328.19087982 619.05314529 327.05363464 619.06332184 325.88192749 619.07380676 C321.13766663 619.11933285 316.39375105 619.16865207 311.64990234 619.24682617 C308.14674199 619.30160043 304.64410811 619.33046268 301.140625 619.35546875 C300.08514465 619.37925095 299.02966431 619.40303314 297.94219971 619.42753601 C285.87670033 619.46962608 276.50365986 615.4283279 267.9765625 607 C263.64085934 602.34867094 260.28875245 597.4100068 256.9609375 592.01171875 C254.72842462 588.58289916 252.3281753 585.3491514 249.8125 582.125 C249.41571045 581.6091333 249.0189209 581.0932666 248.61010742 580.56176758 C238.27307405 567.48793798 226.0697669 555.79787953 214.34667969 543.99658203 C212.53041219 542.16369638 210.71953502 540.32545371 208.9140625 538.48193359 C189.06083104 517.24312407 189.06083104 517.24312407 162.32592773 508.76000977 C158.26191406 508.7398055 154.2978746 508.76214996 150.29296875 509.49609375 C129.7413922 512.64099692 110.35930207 509.52949898 93 498 C89.45599883 495.19101625 86.23107382 492.15791743 83 489 C81.94834995 488.13250987 80.88738749 487.27602479 79.8125 486.4375 C77.49478674 484.42881517 75.65859821 482.5096157 73.6875 480.1875 C64.90772255 470.0204417 54.32382693 463.5728369 42.92089844 456.75732422 C28.4609377 448.09716228 17.41839981 439.64733442 7.72924805 425.69213867 C3.00183433 418.88423542 -2.18409322 412.91598931 -8 407 C-8.58040039 406.40058594 -9.16080078 405.80117187 -9.75878906 405.18359375 C-16.59166664 398.13351683 -23.45825393 391.39745063 -31.1796875 385.3125 C-35.29012681 381.94216749 -39.1331434 378.30418173 -43.0065918 374.66674805 C-46.08177054 371.7798021 -49.17389041 368.93580037 -52.375 366.1875 C-79.66286837 342.49166526 -105.56571478 302.32025036 -110 266 C-110.05642224 263.44331459 -110.06244754 260.88519197 -110.02734375 258.328125 C-110.01269475 256.8538467 -109.99863777 255.37956243 -109.98510742 253.90527344 C-109.97675873 253.14468628 -109.96841003 252.38409912 -109.95980835 251.60046387 C-109.63747195 217.63828894 -115.48416661 187.03237373 -129.6953125 156.06640625 C-145.93931257 120.55229508 -153.39553018 82.84246184 -139.6640625 45.2265625 C-131.54661944 24.11354354 -117.32825367 4.32439703 -96.625 -5.875 C-67.59823853 -17.76647554 -29.18099029 -7.60590396 0 0 Z " fill="#383838" transform="translate(802,1756)"/>
<path d="M0 0 C7.16416423 4.18515071 12.268752 10.434204 17.25 16.9375 C21.15842133 21.65059632 26.19778137 25.25426947 31 29 C31.82242188 29.66128906 32.64484375 30.32257812 33.4921875 31.00390625 C60.44295735 51.78370543 95.19459955 59.48352615 128.390625 62.7421875 C129.67912354 62.86899902 130.96762207 62.99581055 132.29516602 63.12646484 C134.83363828 63.37007411 137.37319588 63.60269868 139.91381836 63.82275391 C156.36059321 65.36059321 156.36059321 65.36059321 161 70 C162.08643337 76.37478338 160.52441839 81.23152236 157.375 86.6875 C156.97385986 87.41042236 156.57271973 88.13334473 156.15942383 88.87817383 C141.3084221 115.17954536 123.74894383 140.56546205 106 165 C105.46246094 165.74185547 104.92492188 166.48371094 104.37109375 167.24804688 C92.21736308 183.98365095 79.53057555 200.27014331 66.41943359 216.26464844 C65.15551382 217.80987406 63.89946211 219.36152781 62.64453125 220.9140625 C53.65984342 232.00990649 44.25462019 242.73773631 34.5625 253.21875 C32.09800188 255.89363211 29.67039654 258.59773091 27.25 261.3125 C24.19251033 264.72361392 21.04386513 267.98995463 17.77270508 271.19482422 C16.05619597 272.94277468 14.4667166 274.74837717 12.87890625 276.61328125 C8.6491169 281.47508242 4.12849535 286.01826476 -0.4375 290.5625 C-1.24509766 291.37396484 -2.05269531 292.18542969 -2.88476562 293.02148438 C-7.22769127 297.35741094 -11.65234727 301.52175027 -16.30493164 305.52319336 C-18.29996802 307.2613433 -20.16246628 309.09684008 -22 311 C-25.1711603 314.21434731 -28.45582753 317.21750963 -31.87890625 320.16015625 C-34.22491058 322.19508819 -36.5173645 324.28290967 -38.8125 326.375 C-43.10473618 330.24911881 -47.52778674 333.92017548 -52.0234375 337.5546875 C-54.75194035 339.79621346 -57.42942097 342.08321041 -60.09692383 344.39624023 C-66.57069114 350.00778672 -73.19650663 355.3535976 -80.03857422 360.51123047 C-82.30881595 362.23439876 -84.56263012 363.97800969 -86.81640625 365.72265625 C-97.41187255 373.90227303 -108.15136573 381.74885891 -119.28271484 389.18212891 C-121.79127131 390.86035994 -124.29281299 392.54864812 -126.7925415 394.23999023 C-193.90753671 439.62589276 -260.21288359 463.08644834 -340.94152832 468.85211182 C-342.90970429 468.99351282 -344.87723865 469.1437611 -346.84472656 469.29443359 C-362.98651479 470.42815936 -379.20170778 470.24453002 -395.375 470.25 C-396.17278366 470.25058914 -396.97056732 470.25117828 -397.79252625 470.25178528 C-423.50849431 470.26516919 -449.04898883 469.72621638 -474.66278076 467.22784424 C-476.99879538 467.00011743 -479.33546805 466.7804972 -481.67236328 466.56201172 C-509.45707089 463.9299286 -536.96306169 459.4854618 -564.48809814 454.94429016 C-615.88482147 446.47215123 -663.97500574 446.39119339 -714.78417969 459.27001953 C-730.57614391 463.26012998 -745.6061306 465.52779319 -760.75 457.8125 C-769.31191786 452.49354524 -774.57850387 445.08799827 -779.5625 436.5 C-786.21660767 425.1186183 -792.93031153 415.86301546 -805.375 410.5625 C-815.3141409 409.02021951 -823.68698818 411.35296864 -832 417 C-837.82904303 422.87337035 -839.32408327 428.13551522 -839.47290039 436.32250977 C-839.35213838 443.41748621 -837.29239372 449.9043798 -835.04663086 456.58935547 C-834.63489624 457.85803467 -834.63489624 457.85803467 -834.21484375 459.15234375 C-833.95823975 459.89476318 -833.70163574 460.63718262 -833.43725586 461.40209961 C-832.81350693 465.10802497 -833.42224279 468.29123467 -834 472 C-834.96188232 471.98428955 -835.92376465 471.9685791 -836.91479492 471.95239258 C-840.54719377 471.89732716 -844.17955731 471.86337718 -847.81225586 471.83520508 C-849.3725407 471.82029024 -850.93278494 471.79995099 -852.49291992 471.77368164 C-867.0932213 471.53433244 -879.38299183 473.00994219 -892 481 C-893.3921875 481.86625 -893.3921875 481.86625 -894.8125 482.75 C-900.71594183 488.8221116 -903.59904776 496.31994347 -906.5 504.125 C-908.88199878 510.4728973 -911.05655887 516.17510662 -916 521 C-916.60972656 521.59683594 -917.21945312 522.19367187 -917.84765625 522.80859375 C-923.8246697 528.00356806 -930.74521757 530.55643298 -938.05371094 533.27490234 C-951.38653454 538.24209829 -963.32634981 543.74080062 -970 557 C-973.17579758 564.65572496 -974.46615506 572.28062197 -971.75 580.25 C-967.82941796 589.30851376 -960.43253993 592.85928511 -951.89453125 597.01953125 C-950.82283691 597.54293091 -950.82283691 597.54293091 -949.72949219 598.0769043 C-948.30692916 598.76494655 -946.87927182 599.44257341 -945.44628906 600.10864258 C-941.72653493 601.89287438 -939.02504644 603.32960332 -937 607 C-936.13633639 611.12639282 -937.10234833 613.60345041 -939.25 617.0625 C-943.45529048 622.95980148 -948.49430005 628.13085551 -953.46826172 633.37548828 C-955.75964604 635.80565584 -958.0027552 638.27904758 -960.25 640.75 C-964.07268274 644.94100682 -967.95578615 649.07074725 -971.86108398 653.18481445 C-979.50629492 661.24891643 -986.89535447 669.4566462 -994 678 C-994.52158691 678.62197266 -995.04317383 679.24394531 -995.58056641 679.88476562 C-1002.31737362 687.93414801 -1008.63158878 696.16201469 -1014.62329102 704.7800293 C-1019.4800676 711.7471957 -1024.62716447 718.42474519 -1030 725 C-1030.42667969 725.53109375 -1030.85335937 726.0621875 -1031.29296875 726.609375 C-1039.30846392 736.52644409 -1048.30865798 745.49224496 -1057.3125 754.5 C-1057.92600311 755.11450012 -1058.53950623 755.72900024 -1059.17160034 756.36212158 C-1065.60269162 762.79203196 -1072.04007085 769.13733462 -1079 775 C-1080.11843569 775.97252473 -1081.23564904 776.9464572 -1082.3515625 777.921875 C-1088.65183403 783.37824124 -1095.03725762 788.68202661 -1101.62109375 793.79296875 C-1105.34629087 796.68760316 -1109.01713856 799.63789275 -1112.66015625 802.63525391 C-1133.19753583 819.51326441 -1154.62045671 834.79729751 -1177.82910156 847.78320312 C-1179.76606868 848.8688806 -1181.69209683 849.97160229 -1183.6171875 851.078125 C-1223.27566296 873.20053988 -1269.0461888 884.88778356 -1314.3515625 885.30859375 C-1315.48611657 885.31997816 -1315.48611657 885.31997816 -1316.64359093 885.33159256 C-1322.63733726 885.38848683 -1328.63102941 885.41730824 -1334.625 885.4375 C-1335.53265987 885.44109905 -1336.44031975 885.4446981 -1337.37548447 885.44840622 C-1378.40763905 885.59285144 -1419.31173856 883.62344768 -1460.27492696 881.52793854 C-1467.83403051 881.14156218 -1475.39340405 880.76082424 -1482.953125 880.38671875 C-1483.95764147 880.33691183 -1483.95764147 880.33691183 -1484.9824512 880.28609872 C-1503.3151208 879.38028211 -1521.62965292 878.71305032 -1539.984375 878.51953125 C-1541.44730012 878.50407477 -1541.44730012 878.50407477 -1542.93977928 878.48830605 C-1551.83906681 878.40148719 -1560.73751593 878.363199 -1569.63717461 878.3954916 C-1572.72566995 878.4045529 -1575.8140806 878.40050572 -1578.90258026 878.39510155 C-1580.94785504 878.39830094 -1582.99186903 878.42434114 -1585.03692627 878.45246887 C-1592.13855706 878.44901092 -1597.06209061 878.06261589 -1603 874 C-1605.49607935 869.75946983 -1605.83476465 865.8249397 -1605 861 C-1603.0729972 857.42763326 -1600.91317895 855.30439298 -1597 854 C-1595.36475919 853.85389112 -1593.72486137 853.75740116 -1592.08447266 853.69042969 C-1591.07231689 853.64635483 -1590.06016113 853.60227997 -1589.01733398 853.55686951 C-1587.91075439 853.51232132 -1586.8041748 853.46777313 -1585.6640625 853.421875 C-1583.2624961 853.31568123 -1580.86096764 853.20862689 -1578.45947266 853.10083008 C-1577.18549622 853.04440338 -1575.91151978 852.98797668 -1574.59893799 852.92984009 C-1545.3128253 851.60450056 -1516.2100323 849.26390537 -1487.0506134 846.21437836 C-1484.87733129 845.98717578 -1482.70399154 845.7605307 -1480.53063965 845.53399658 C-1476.48363552 845.1121304 -1472.4366852 844.68975061 -1468.38975143 844.26721001 C-1465.85446895 844.0025787 -1463.31915773 843.73822396 -1460.78384399 843.47389221 C-1453.28591403 842.69164364 -1445.78825477 841.90741697 -1438.29231453 841.10629654 C-1420.05223229 839.15895575 -1401.81497801 837.40350099 -1383.52185059 836.02865601 C-1351.39842297 833.58658685 -1319.80572997 827.40545126 -1289 818 C-1288.09878418 817.72575195 -1287.19756836 817.45150391 -1286.26904297 817.16894531 C-1233.69440123 800.93992996 -1183.84106385 772.66347146 -1142.54931641 736.33886719 C-1140.14839781 734.26407399 -1137.66575672 732.29373428 -1135.1875 730.3125 C-1130.87547415 726.81609194 -1126.9690367 723.07536042 -1123.09765625 719.1015625 C-1121.21296935 717.21336594 -1119.28382904 715.4738718 -1117.25 713.75 C-1109.23502076 706.85936655 -1101.69964947 699.20228536 -1094.86328125 691.14453125 C-1092.85915188 688.83789179 -1090.78687156 686.60719854 -1088.70092773 684.37475586 C-1083.65875337 678.97638761 -1078.82262444 673.48606449 -1074.1953125 667.72265625 C-1071.92179891 664.90301395 -1069.58976035 662.13982935 -1067.25 659.375 C-1061.50231775 652.48310322 -1056.05898935 645.3733285 -1050.66357422 638.20361328 C-1049.11075861 636.14671371 -1047.54299187 634.1021252 -1045.97265625 632.05859375 C-1029.01593781 609.74585801 -1013.92993714 585.89162637 -998.92114258 562.2434082 C-985.89993151 541.78052978 -972.56675419 521.40163619 -958 502 C-957.46616699 501.28505371 -956.93233398 500.57010742 -956.38232422 499.83349609 C-949.23136222 490.27863824 -941.82252033 481.01235352 -934 472 C-933.38898437 471.2884375 -932.77796875 470.576875 -932.1484375 469.84375 C-920.92664826 456.8668942 -909.22933672 443.96584556 -896 433 C-895.46987305 432.5560791 -894.93974609 432.1121582 -894.39355469 431.65478516 C-827.19166275 375.50798566 -743.9792964 347.569135 -540.44476318 335.92095947 C-528.3338762 335.96273878 -516.22295613 335.99187471 -504.11201614 336.01274782 C-499.61686319 336.02092968 -495.12178003 336.03485982 -490.62665939 336.05359042 C-466.21838625 336.14973301 -441.621964 336.22572509 -417.3125 333.8125 C-416.01892578 333.68576904 -414.72535156 333.55903809 -413.39257812 333.4284668 C-348.80856849 326.80502459 -285.97920028 306.95865929 -231 272 C-230.0104834 271.37279053 -230.0104834 271.37279053 -229.00097656 270.73291016 C-214.27449218 261.32537451 -200.08283991 250.95379266 -186.890625 239.4921875 C-184.22581801 237.19469174 -181.50586283 234.99903788 -178.75 232.8125 C-174.06722534 228.98809969 -169.63923668 224.94139064 -165.2421875 220.79296875 C-164.13370956 219.74798218 -164.13370956 219.74798218 -163.00283813 218.68188477 C-155.40121002 211.48267514 -147.96773632 204.11957194 -140.57568359 196.70605469 C-138.34458428 194.46951005 -136.10807053 192.238477 -133.87109375 190.0078125 C-132.42155368 188.55761277 -130.97232321 187.10710349 -129.5234375 185.65625 C-128.86918793 185.00402466 -128.21493835 184.35179932 -127.54086304 183.67980957 C-123.16356927 179.28044992 -119.0401418 174.709589 -115 170 C-114.04996252 168.90583013 -113.09952686 167.81200566 -112.1484375 166.71875 C-84.92093495 135.19293497 -61.18193542 101.44330357 -41 65 C-40.22931688 63.63142581 -39.45850422 62.26292457 -38.6875 60.89453125 C-31.38080227 47.74104929 -25.23768319 33.85135522 -19.47265625 19.96484375 C-19.07554443 19.0123877 -18.67843262 18.05993164 -18.26928711 17.07861328 C-17.52782251 15.28625274 -16.79743196 13.48925469 -16.08032227 11.68701172 C-12.93174595 4.05340756 -9.1726775 -2.54796597 0 0 Z " fill="#383838" transform="translate(2926,518)"/>
<path d="M0 0 C1.08616608 0.15661102 2.17233215 0.31322205 3.29141235 0.47457886 C36.74481597 5.32580093 69.56582781 12.2129412 102.48901367 19.81274414 C156.86745701 32.33435309 210.28037165 41.00294638 265.07763672 25.80615234 C273.93529887 23.38504764 281.43974855 22.8408689 289.9375 26.875 C303.75011116 35.41626771 306.95337992 54.10862274 311.01660156 68.63867188 C327.19437543 126.43154099 353.0121031 181.0023348 382.9375 232.875 C383.59758057 234.02911377 383.59758057 234.02911377 384.27099609 235.20654297 C392.63071997 249.79082316 401.21243325 260.68446204 417.9375 265.875 C429.30557281 268.49131497 440.96421823 266.88611246 451.1875 261.25 C462.98543557 253.51055427 469.99083642 240.49658307 473.5703125 227.0625 C474.12657384 223.74860266 473.85619376 221.09042815 472.9375 217.875 C470.68443525 214.93621989 468.72833809 213.99534493 465.0625 213.4375 C461.79001016 213.55149214 461.79001016 213.55149214 459.9375 216.125 C458.72404264 218.23363082 457.68837316 220.3972659 456.640625 222.59375 C451.54028602 233.23316679 445.73862892 242.37292117 434.9375 247.875 C429.42751858 249.59157114 424.14086876 249.70514716 418.875 247.3125 C410.84279663 242.68361407 406.0339932 235.48536692 401.25 227.75 C400.64551025 226.78425049 400.04102051 225.81850098 399.41821289 224.82348633 C338.9375 127.48226297 338.9375 127.48226297 338.9375 92.875 C346.10204887 92.21161585 350.99885984 93.79548903 356.9375 97.875 C359.80538327 100.49765847 362.49801098 103.25383793 365.17578125 106.06640625 C367.69323954 108.62659368 370.24638393 110.84283816 373.0625 113.0625 C378.93067156 117.73170701 384.3275304 122.8507611 389.74853516 128.02807617 C394.37391868 132.43965404 399.10615696 136.69088525 403.9375 140.875 C405.00879704 141.82441105 406.07916519 142.77487167 407.1484375 143.7265625 C431.5488744 165.80891638 431.5488744 165.80891638 462.25 173.875 C470.29723262 172.89170051 478.23978707 169.51537991 483.5 163.1875 C489.21188126 154.16608754 489.3396959 144.3045761 489.55981445 133.93115234 C489.70928364 127.97879294 490.46714289 122.65013757 491.9375 116.875 C492.5975 116.875 493.2575 116.875 493.9375 116.875 C501.57017199 150.5683769 505.2446113 183.42178709 505.18199921 217.98921394 C505.17552866 222.08569283 505.18216808 226.18196737 505.19317627 230.27842712 C505.19689578 231.72126478 505.20059392 233.1641025 505.20427132 234.60694027 C505.20705286 235.69362698 505.20705286 235.69362698 505.2098906 236.80226696 C505.21688422 239.77930953 505.22163371 242.75635414 505.22646296 245.73340088 C505.32038384 301.89159453 506.49834712 357.87109081 509.21020508 413.96606445 C509.29517085 415.72419543 509.29517085 415.72419543 509.3818531 417.5178442 C509.64565313 422.9454297 509.91570915 428.37254361 510.20074463 433.79905701 C512.13371425 471.14454551 512.13371425 471.14454551 506.25 477.77734375 C500.71921462 482.67439331 496.90574936 483.24509575 489.53515625 483.1328125 C461.2160468 481.10343006 435.88437452 459.0928485 416.9296875 439.9296875 C415.71419724 438.7085173 415.71419724 438.7085173 414.47415161 437.462677 C411.91778627 434.89423721 409.36472493 432.32255367 406.8125 429.75 C403.43786367 426.34859601 400.0598081 422.95064063 396.6796875 419.5546875 C395.92114471 418.78784637 395.16260193 418.02100525 394.381073 417.23092651 C389.73557832 412.56435071 384.94489297 408.14960798 379.9375 403.875 C378.83126687 402.91363928 377.72566985 401.9515454 376.62109375 400.98828125 C345.94024631 374.44969925 312.75210343 351.51314861 277.14892578 332.08496094 C275.08214264 330.95413987 273.02332706 329.80989492 270.96484375 328.6640625 C242.68349625 313.10035043 211.98925515 302.38719085 181.89013672 290.95800781 C147.11431513 277.74491529 111.88989265 263.67408037 82.07421875 240.94921875 C71.9582436 233.01657075 71.9582436 233.01657075 59.9375 228.875 C56.37239289 229.41409295 56.37239289 229.41409295 53.9375 230.875 C53.03117662 234.33550745 52.74334245 236.34521696 53.98828125 239.7421875 C56.4104376 243.63511214 59.11734488 245.74369781 62.8125 248.375 C63.50794922 248.88200439 64.20339844 249.38900879 64.91992188 249.91137695 C84.04051995 263.70929321 103.75364205 275.57913327 124.9375 285.875 C125.57914093 286.18724014 126.22078186 286.49948029 126.88186646 286.82118225 C137.10676408 291.77345587 147.45936933 296.23971646 158.02905273 300.40176392 C160.58857175 301.4098859 163.14513568 302.42522073 165.70117188 303.44213867 C172.89533527 306.30240178 180.09530923 309.14791918 187.29638672 311.99072266 C207.08168904 319.80431203 226.75953507 327.64410014 245.9375 336.875 C247.23518158 337.49531014 248.53304411 338.11524186 249.83105469 338.73486328 C259.5644375 343.38499451 269.26674966 348.09596573 278.9375 352.875 C279.94876953 353.37451172 280.96003906 353.87402344 282.00195312 354.38867188 C298.02156783 362.36952114 315.96678494 372.23845728 327.9375 385.875 C327.9375 386.535 327.9375 387.195 327.9375 387.875 C247.81508185 399.53575171 247.81508185 399.53575171 216.20263672 384.92138672 C196.54184873 375.83902659 176.8702211 369.01523065 155.25 366.625 C154.5394043 366.54483643 153.82880859 366.46467285 153.09667969 366.38208008 C139.72898572 365.08770485 126.68388853 366.14915454 113.39526367 367.58590698 C100.08875863 369.00656926 86.83019362 370.27415848 73.4375 370.3125 C72.3969043 370.32216797 71.35630859 370.33183594 70.28417969 370.34179688 C60.08563892 370.22663567 50.64172523 367.83040333 42.9375 360.875 C29.00922372 344.73680932 25.30398918 318.99862854 19.9375 298.875 C19.74738342 298.16627747 19.55726685 297.45755493 19.36138916 296.72735596 C10.96585874 265.40196287 4.99130339 233.78847838 -0.171875 201.78515625 C-0.31017479 200.92893299 -0.44847458 200.07270973 -0.59096527 199.19054031 C-1.99423163 190.4985136 -3.38967492 181.80540688 -4.75291634 173.10700512 C-7.54545805 155.31512049 -10.57627857 137.60530743 -14.1953125 119.9609375 C-14.35704453 119.16844416 -14.51877655 118.37595081 -14.68540955 117.55944252 C-21.40347559 84.81278002 -31.07042766 53.24540912 -45.14648438 22.87255859 C-51.36826719 9.30469427 -51.36826719 9.30469427 -49.0625 1.875 C-38.32174233 -9.86489792 -14.01177269 -2.02428778 0 0 Z " fill="#383838" transform="translate(1611.0625,1626.125)"/>
<path d="M0 0 C12.01816822 7.2752122 16.7582167 19.02558 21.3125 31.75 C27.64413326 49.37200746 37.5120825 64.41898581 50.4375 77.9375 C51.00863525 78.54360107 51.57977051 79.14970215 52.16821289 79.77416992 C57.01503462 84.79359668 62.17985238 88.86537847 67.875 92.875 C81.45464075 102.6936224 92.52101523 112.69837011 95.4375 129.9375 C96.58785538 142.98429007 93.71297331 155.26152237 90.9375 167.9375 C90.47695461 170.08399277 90.0167528 172.23055928 89.55688477 174.37719727 C80.97051136 214.15014503 70.87864302 253.01825129 47.69677734 287.07226562 C33.68844486 307.8213273 27.74466374 327.77615148 27.15877438 352.68035316 C26.81803855 366.64131112 26.044597 380.49669615 24.82202148 394.40869141 C24.69461714 395.87156991 24.69461714 395.87156991 24.56463897 397.36400151 C22.31980661 422.89562478 19.23154171 448.32650381 16.13870931 473.7666316 C15.40278927 479.83219469 14.67400829 485.89861208 13.94498914 491.96500774 C12.5003008 503.98472016 11.04887493 516.00360832 9.59301758 528.02197266 C8.19545017 539.55925144 6.80157019 551.09696651 5.41235352 562.63525391 C5.28375558 563.70332514 5.28375558 563.70332514 5.15255971 564.79297356 C4.80744945 567.65939351 4.46235826 570.52581574 4.11729384 573.3922412 C1.90708375 591.75164313 -0.30698087 610.11058246 -2.52464294 628.46908569 C-2.74913912 630.32774224 -2.74913912 630.32774224 -2.97817057 632.22394741 C-3.70263926 638.21703485 -4.42974381 644.20978286 -5.16248989 650.20186424 C-5.43971101 652.46943362 -5.71691799 654.73700472 -5.99411011 657.00457764 C-6.12784462 658.09800417 -6.26157913 659.1914307 -6.3993662 660.31799138 C-7.16381663 666.59095453 -7.90583224 672.86598714 -8.62473792 679.14433086 C-9.05582055 682.89691542 -9.49775426 686.64817641 -9.94145501 690.39928746 C-10.13979849 692.10114682 -10.33289982 693.80362728 -10.5201472 695.50674319 C-12.41383081 712.71324991 -12.41383081 712.71324991 -18.25 720.0625 C-22.2486807 721.57551432 -25.67100391 720.43822721 -29.5625 718.9375 C-32.52076141 717.26382809 -34.98916225 715.14876007 -37.5625 712.9375 C-38.56925781 712.10089844 -39.57601563 711.26429688 -40.61328125 710.40234375 C-52.19886571 700.70161576 -63.28659769 690.38436145 -73.8671875 679.59765625 C-75.57438244 677.92586397 -77.35355977 676.40584132 -79.1875 674.875 C-85.18506847 669.71075317 -90.39551114 663.73183319 -95.74121094 657.91162109 C-97.49595093 656.00963348 -99.26426339 654.12154591 -101.0390625 652.23828125 C-107.51295181 645.35959776 -113.72975263 638.37664336 -119.5625 630.9375 C-120.06813477 630.2990918 -120.57376953 629.66068359 -121.09472656 629.00292969 C-137.83133184 607.82419547 -149.62587789 586.69435907 -147.5625 558.9375 C-145.71053153 544.55750949 -139.92015513 532.17701968 -132.9375 519.6875 C-95.51453255 452.45084355 -60.31184813 343.11997063 -77.86376953 250.33447266 C-82.60364982 234.07446403 -90.26283833 218.96388858 -99.8125 205 C-110.38940247 189.52389261 -117.6549223 171.83001465 -114.1625824 152.75292969 C-113.63564629 150.34507916 -113.06610153 147.95189206 -112.4765625 145.55859375 C-112.25783981 144.65699524 -112.03911713 143.75539673 -111.81376648 142.82647705 C-109.22154273 132.30945178 -106.29503425 121.88544664 -103.3137207 111.47314453 C-102.35684664 108.12396087 -101.41360711 104.77110892 -100.47070312 101.41796875 C-99.86279131 99.28362268 -99.25409842 97.14949889 -98.64453125 95.015625 C-98.22419365 93.51446136 -98.22419365 93.51446136 -97.79536438 91.98297119 C-97.53136337 91.0698114 -97.26736237 90.15665161 -96.99536133 89.21582031 C-96.76617508 88.41090149 -96.53698883 87.60598267 -96.30085754 86.77667236 C-95.5625 84.9375 -95.5625 84.9375 -93.5625 83.9375 C-93.05460937 85.09765625 -92.54671875 86.2578125 -92.0234375 87.453125 C-89.8963602 92.2932899 -87.73574044 97.11791199 -85.5625 101.9375 C-85.27503906 102.58090332 -84.98757813 103.22430664 -84.69140625 103.88720703 C-80.80975854 112.87512563 -80.80975854 112.87512563 -73.5625 118.9375 C-68.62565514 119.66564821 -64.25140079 119.5708378 -59.5625 117.8125 C-54.49067434 113.05766345 -53.8671807 106.90332295 -52.9375 100.375 C-48.86555978 74.23765888 -43.54818878 48.19026167 -37.25 22.5 C-37.09132446 21.83782471 -36.93264893 21.17564941 -36.76916504 20.4934082 C-34.53708581 11.24447399 -32.67790022 4.555854 -24.5625 -1.0625 C-17.15178885 -3.53273705 -7.09785453 -3.34081116 0 0 Z " fill="#383838" transform="translate(1272.5625,1375.0625)"/>
<path d="M0 0 C5.98085164 3.58351654 9.96888887 9.372211 14.06640625 14.86987305 C20.04203853 22.84309342 26.92508574 29.995019 34 37 C34.53882812 37.54785156 35.07765625 38.09570312 35.6328125 38.66015625 C45.68700286 48.1089896 58.9919608 48.1683226 72 48.0625 C73.06089844 48.05798828 74.12179687 48.05347656 75.21484375 48.04882812 C77.80995598 48.03713843 80.40494709 48.02075276 83 48 C75.84175674 62.83815576 60.22711408 75.474883 44.91796875 81.140625 C40.35851382 82.55737302 35.75885206 83.79604889 31.1484375 85.03515625 C15.52167034 89.41806417 3.75181825 97.96576223 -8.9296875 107.8515625 C-17.60507656 114.60089329 -26.46100756 120.51309054 -36.3203125 125.39453125 C-40.14980133 127.68887514 -41.60214871 129.80644614 -43 134 C-43.0487839 136.09969539 -43.03688585 138.20099491 -42.9921875 140.30078125 C-42.9730127 141.57719482 -42.95383789 142.8536084 -42.93408203 144.16870117 C-42.92362854 144.84468353 -42.91317505 145.52066589 -42.90240479 146.21713257 C-42.48298359 178.28603968 -50.10119722 204.5312307 -63.51953125 233.44140625 C-87.52383319 285.21177513 -97.68974586 341.50383331 -94.25 398.4375 C-94.20709839 399.14831726 -94.16419678 399.85913452 -94.11999512 400.5914917 C-91.44965791 443.58057983 -81.52157029 484.8096131 -70.2265625 526.19140625 C-53.99525252 585.70869609 -41.42712366 646.36518673 -37 708 C-36.95267731 708.64764313 -36.90535461 709.29528625 -36.8565979 709.96255493 C-35.87078543 723.8632814 -35.79928017 737.75673594 -35.8125 751.6875 C-35.81310425 752.86022461 -35.8137085 754.03294922 -35.81433105 755.24121094 C-35.83510951 770.16521015 -35.96973743 785.08211316 -36.63778687 799.99282837 C-36.71193982 801.64962351 -36.78042334 803.3066832 -36.84292603 804.96395874 C-36.93249274 807.23790472 -37.0475618 809.50897098 -37.171875 811.78125 C-37.2661377 813.6694043 -37.2661377 813.6694043 -37.36230469 815.59570312 C-38.30934291 820.65140791 -40.45472853 823.89623466 -44.625 826.875 C-50.93035815 828.97678605 -56.62044063 828.95184525 -62.75 826.25 C-69.94611267 822.25717259 -75.94240723 816.50427134 -82 811 C-82.53979492 810.51128418 -83.07958984 810.02256836 -83.63574219 809.51904297 C-86.17017261 807.2195148 -88.69196045 804.90693501 -91.203125 802.58203125 C-94.58634399 799.4586964 -98.01216808 796.3850974 -101.44140625 793.3125 C-103.78099985 791.19793602 -106.09699929 789.05976046 -108.40869141 786.91479492 C-117.23522337 778.74651758 -126.57141073 771.31265467 -136.0625 763.9375 C-137.24162964 763.02049316 -137.24162964 763.02049316 -138.44458008 762.08496094 C-141.59418382 759.63736733 -144.74510977 757.19355301 -147.921875 754.78125 C-178.50874032 731.19138002 -193.35141752 698.26322991 -198.60546875 660.69921875 C-199.81681453 649.34135288 -200.21968618 638.04918285 -200.21875 626.63671875 C-200.21944992 625.80595007 -200.22014984 624.97518139 -200.22087097 624.1192379 C-200.20519854 600.96718982 -198.70866008 577.88799973 -197.31781006 554.78637695 C-195.93728367 531.8181302 -194.76471763 508.91858415 -194.80078125 485.90234375 C-194.80205017 484.99126169 -194.80331909 484.08017963 -194.80462646 483.14148903 C-194.91671551 442.50883262 -200.62567043 403.62025961 -214.33520508 365.26367188 C-221.37568742 345.16936982 -220.25205296 325.02636651 -211.71484375 305.5546875 C-205.13979414 291.92531359 -194.56939416 280.25260681 -183.77734375 269.76953125 C-181.39858241 267.40122601 -179.23453586 264.87593964 -177.046875 262.33203125 C-174.41833206 259.33729816 -171.71070146 256.4202746 -169 253.5 C-165.19265357 249.39434722 -161.43685931 245.25871052 -157.7734375 241.0234375 C-155.54861908 238.48498829 -153.27496681 235.99358224 -151 233.5 C-146.02538276 228.03987206 -141.13446258 222.52219763 -136.359375 216.88671875 C-131.09010631 210.67987029 -125.748324 204.57332106 -120.1875 198.625 C-119.63602295 198.03468994 -119.0845459 197.44437988 -118.51635742 196.83618164 C-117.4705506 195.71711283 -116.42473409 194.59805307 -115.37890625 193.47900391 C-103.44310117 181.78489796 -103.44310117 181.78489796 -98 167 C-103.90118157 157.08830669 -120.41046228 153.88601382 -130.68457031 150.24707031 C-142.51900392 145.96199216 -142.51900392 145.96199216 -145 141 C-145.68710784 136.36202205 -145.95966823 131.95877489 -143.859375 127.671875 C-136.38292416 118.16299093 -121.7907658 114.73739258 -110.2434082 113.19628906 C-104.84285904 112.72376305 -99.41733228 112.76362337 -94 112.75 C-93.34159119 112.74766357 -92.68318237 112.74532715 -92.00482178 112.74291992 C-81.10755662 112.7284109 -70.52545892 113.64210618 -59.7578125 115.34375 C-52.08682212 116.75586268 -52.08682212 116.75586268 -45.0625 114.625 C-42.64621618 110.9295071 -42.42842688 108.4296917 -43 104 C-49.0161504 93.34950053 -62.85220011 87.93059139 -73.3203125 82.54296875 C-75.70508349 81.16981344 -77.3767315 80.20261686 -79 78 C-79.88981031 73.71929092 -79.55169032 70.03441934 -77.5 66.1875 C-69.58350133 59.26056367 -58.33935672 56.29589793 -47.95483398 56.73535156 C-37.66942218 57.65656006 -28.51843341 61.7031003 -19.25 66 C-5.22989381 73.29382137 -5.22989381 73.29382137 10 75 C13.14658666 73.10350449 13.14658666 73.10350449 15 70 C15.63685899 64.29566083 14.24157537 60.79425421 11.1875 56.125 C10.58723999 55.16388306 10.58723999 55.16388306 9.97485352 54.18334961 C7.77971789 50.69110755 5.50866351 47.24961466 3.234375 43.80859375 C-14.59499575 16.80298207 -14.59499575 16.80298207 -13.65234375 6.99609375 C-11.62428258 0.79046946 -6.13987787 -1.27031956 0 0 Z " fill="#383838" transform="translate(2120,951)"/>
<path d="M0 0 C2.4967154 0.98250375 4.66506704 1.978039 7 3.25 C7.67369629 3.60280029 8.34739258 3.95560059 9.04150391 4.3190918 C10.54129881 5.10552056 12.03806344 5.89774736 13.53222656 6.69482422 C16.18239529 8.09646668 18.85049961 9.45871619 21.5234375 10.81640625 C37.97990138 19.21219391 54.06986177 27.74336399 68 40 C68.68964844 40.5465625 69.37929687 41.093125 70.08984375 41.65625 C82.74242352 51.87853227 91.01743788 66.50926517 95.52734375 81.94921875 C95.85094879 83.05637489 95.85094879 83.05637489 96.18109131 84.18589783 C98.11699776 91.03321153 99.35625289 97.91846185 100.42514038 104.94900513 C106.67297593 145.5966191 117.53694531 185.46020046 128.8203125 224.953125 C129.2491826 226.45602738 129.67804611 227.95893164 130.10690308 229.46183777 C132.03067895 236.19871105 133.96057069 242.93362913 135.91399002 249.661973 C150.3217866 299.34315854 147.28935662 344.518869 122.1796875 390.53125 C99.19523685 431.06720706 57.93558689 457.70541049 13.89990234 470.22558594 C5.35093303 472.50857387 -3.31416934 474.32222577 -12 476 C-13.546875 476.30357422 -13.546875 476.30357422 -15.125 476.61328125 C-18.92514578 477.12444216 -22.66904829 477.26200415 -26.5 477.3125 C-27.23347656 477.34150391 -27.96695312 477.37050781 -28.72265625 477.40039062 C-33.93556809 477.46100588 -36.89473374 476.48760462 -41 473 C-42.89343497 469.21313006 -43.84161774 465.72014435 -44.75 461.58984375 C-49.4364463 440.68913012 -60.16195953 424.05459798 -73.15209961 407.34204102 C-88.89004428 387.09033696 -90.13080613 368.23016532 -87.4375 343.40234375 C-87.25392994 341.62333381 -87.07083794 339.84427448 -86.88818359 338.06517029 C-84.53244324 315.50673618 -81.54145098 293.02082699 -78.60424805 270.5324707 C-75.67301567 248.07839789 -72.82633901 225.635418 -70.6875 203.08984375 C-70.60618835 202.23787477 -70.52487671 201.3859058 -70.44110107 200.50811958 C-69.11622099 186.49865596 -68.02412785 172.46880034 -67.75390625 158.39453125 C-67.7210137 156.96418553 -67.6878014 155.53384714 -67.65429688 154.10351562 C-67.60699617 151.95194643 -67.5622805 149.80041656 -67.52319336 147.64868164 C-67.05213047 122.66542404 -61.14815587 103.44881059 -47.67480469 82.41601562 C-34.90692944 62.40065591 -24.36395904 41.41671984 -17.6953125 18.5859375 C-17.48285889 17.86865479 -17.27040527 17.15137207 -17.05151367 16.41235352 C-16.4754405 14.44225198 -15.92243792 12.46544588 -15.37109375 10.48828125 C-12.32078313 2.72780438 -8.47806494 -0.59068485 0 0 Z " fill="#383838" transform="translate(1385,1586)"/>
<path d="M0 0 C8.33331735 5.85673964 15.80171264 12.78138627 23.16943359 19.78710938 C23.87583984 20.4290625 24.58224609 21.07101562 25.31005859 21.73242188 C42.15687434 37.55199276 49.22960169 55.21087139 52.29052734 77.65820312 C56.30552669 106.77686469 74.40639828 130.82875908 97.47412109 148.31835938 C99.18391859 149.60737314 100.89543057 150.89407759 102.60742188 152.18017578 C107.25831751 155.72950671 111.51313828 159.47451876 114.16943359 164.78710938 C115.2293857 174.35696266 113.47336582 181.22296871 107.59521484 188.82226562 C100.80547435 196.27673595 92.18261686 198.26942104 82.54443359 199.72460938 C63.87779177 202.86355215 47.49235595 209.0262507 33.16943359 221.78710938 C32.42177734 222.44066406 31.67412109 223.09421875 30.90380859 223.76757812 C25.57313154 228.73479993 21.62286598 234.23033132 17.79443359 240.38305664 C14.58253636 245.47952651 11.08700291 250.81458627 5.16943359 252.78710938 C0.23893676 253.05950038 -3.57225707 252.49065834 -8.22509766 250.88085938 C-9.41917236 250.47085693 -10.61324707 250.06085449 -11.84350586 249.63842773 C-13.11040586 249.18905766 -14.37691907 248.73859581 -15.64306641 248.28710938 C-16.2885141 248.06024445 -16.93396179 247.83337952 -17.59896851 247.59963989 C-41.379703 239.2349701 -62.62822509 229.1703557 -81.35009766 212.04492188 C-83.70782311 209.89883477 -86.10797951 207.81144184 -88.51806641 205.72460938 C-91.91638244 202.69993019 -94.97690621 199.56324375 -97.90087891 196.08007812 C-99.34231597 194.3672774 -100.82298839 192.68735649 -102.32275391 191.02539062 C-124.59948372 166.0993412 -136.63295952 135.33993924 -134.83056641 101.78710938 C-134.66842234 100.44605323 -134.49613261 99.10619384 -134.31494141 97.76757812 C-133.80386274 93.53299172 -133.76944024 89.33515831 -133.80322266 85.07617188 C-133.80871628 84.3773439 -133.8142099 83.67851593 -133.81987 82.95851135 C-133.84751381 80.04609789 -133.88204507 77.13388629 -133.92651367 74.22167969 C-134.15952362 57.86328031 -132.88585546 43.9549786 -121.16894531 31.51831055 C-89.07309814 -0.89964232 -41.97067165 -27.80878858 0 0 Z " fill="#383838" transform="translate(1161.83056640625,1119.212890625)"/>
<path d="M0 0 C0.66 0.33 1.32 0.66 2 1 C2.68945829 3.42636651 3.25699935 5.79679489 3.76953125 8.26171875 C3.93241135 9.00396194 4.09529144 9.74620514 4.2631073 10.51094055 C4.95982837 13.68628941 5.63743421 16.86561847 6.31469727 20.04516602 C9.37281551 34.31389456 13.6718434 47.3802063 19.75 60.6875 C31.10701165 86.33264069 39.47655388 113.96846603 42 142 C42.13245117 143.26348267 42.13245117 143.26348267 42.26757812 144.55249023 C42.90982875 151.42291091 43.0556977 158.22056769 42.9921875 165.11328125 C42.98436752 166.01856567 42.97654755 166.9238501 42.9684906 167.85656738 C42.93199026 171.61641072 42.89038868 175.37597722 42.82861328 179.13549805 C42.54730031 197.31179311 42.71066053 217.85571702 55.88916016 232.03222656 C58.75487866 234.81461991 61.71156179 237.48066223 64.69848633 240.13183594 C77.11300717 251.256341 84.04967558 264.74928411 85.05834961 281.57885742 C85.23555346 287.81187409 84.33458733 293.81176608 83.11889648 299.91430664 C80.80284663 311.95485593 82.27657115 322.95507523 84.82098389 334.7671814 C90.91135403 363.20844613 93.08449844 391.72243611 93.22979546 420.77224159 C93.24659216 424.02221744 93.26984152 427.27209467 93.29469299 430.52201843 C93.36436694 439.75184942 93.42472297 448.98172315 93.47680664 458.21166992 C93.77195922 512.2671378 93.77195922 512.2671378 99.66825867 565.93249512 C100.30027236 569.87138146 100.90233009 573.81492603 101.50878906 577.7578125 C103.04767632 587.74125037 104.61358439 597.72033279 106.18438721 607.6987915 C106.77687138 611.46552666 107.36747111 615.23255625 107.95801735 618.99959564 C108.67177399 623.55193289 109.3866343 628.10409662 110.1015625 632.65625 C110.30039976 633.92322975 110.30039976 633.92322975 110.50325394 635.21580505 C110.88258564 637.63159606 111.26257858 640.04728145 111.64306641 642.46289062 C111.76086928 643.21117724 111.87867216 643.95946386 112.00004482 644.73042583 C112.83827393 650.03256834 113.71856831 655.3266726 114.63502502 660.61592102 C116.15641595 670.55390685 116.14564539 680.8424973 110.40625 689.3671875 C104.61654396 696.60432005 97.14918138 700.59459579 88 702 C86.00303327 702.13808812 84.00150092 702.21936478 82 702.25 C80.989375 702.27578125 79.97875 702.3015625 78.9375 702.328125 C75.54889934 701.9496111 73.73556568 700.99906723 71 699 C67.23354638 693.88838437 66.94379559 689.15739147 66.81152344 682.93115234 C66.57180199 673.21482357 65.49867559 663.70438146 64.07855225 654.09799194 C61.86772791 639.13950436 60.07873878 624.17602432 58.625 609.125 C58.52546021 608.09641876 58.42592041 607.06783752 58.32336426 606.00808716 C56.90735643 591.27650634 55.59989173 576.53554045 54.3046875 561.79296875 C50.27069593 513.32636597 50.27069593 513.32636597 44.30743408 465.0725708 C43.99355333 462.95653971 43.68776078 460.8394328 43.38232422 458.72216797 C39.1688142 429.86475877 31.77335513 401.80856545 24.2421875 373.66796875 C24.02026733 372.83559189 23.79834717 372.00321503 23.56970215 371.14561462 C22.53876046 367.27965451 21.50004711 363.4164555 20.43652344 359.55932617 C14.44173788 337.52752966 11.17508464 315.27496098 9.0859375 292.5703125 C8.83689445 289.96637712 8.58673123 287.36254868 8.33554077 284.75881958 C7.80945346 279.288716 7.29196311 273.81786179 6.78112793 268.34631348 C6.07461521 260.7789304 5.35490639 253.21285492 4.63106906 245.64711142 C3.49819126 233.80319955 2.37382602 221.95849393 1.25463867 210.11328125 C0.71155848 204.36717495 0.16836591 198.62107928 -0.375 192.875 C-0.44433982 192.14171478 -0.51367965 191.40842957 -0.58512068 190.65292358 C-4.86298251 145.08739758 -4.86298251 145.08739758 -9.62109375 99.5703125 C-9.71829964 98.68889462 -9.81550552 97.80747673 -9.91565704 96.89934921 C-10.77558225 89.11749605 -11.65046157 81.33775402 -12.57314301 73.56307793 C-14.02503049 61.29224238 -15.28167044 49.11602943 -15.38671875 36.75 C-15.39991653 35.80350586 -15.41311432 34.85701172 -15.42671204 33.88183594 C-15.330684 21.8800214 -11.14844377 10.95889373 -2.625 2.375 C-1.75875 1.59125 -0.8925 0.8075 0 0 Z " fill="#383838" transform="translate(631,1844)"/>
<path d="M0 0 C3.94731371 1.81446156 6.15835514 4.11585658 9.0625 7.375 C10.04403091 8.46896531 11.0258085 9.56270934 12.0078125 10.65625 C12.50571289 11.21441406 13.00361328 11.77257813 13.51660156 12.34765625 C14.91145063 13.90136568 16.32168342 15.438503 17.7421875 16.96875 C26.79857028 26.73389317 35.72000904 36.53598264 43.3125 47.5 C52.41577807 60.50392378 63.07086715 64.04860873 78 67.9375 C89.27926875 70.8868227 98.20941126 75.04150497 107.87109375 81.609375 C115.64770589 86.68914366 122.68439671 88.31141988 132 87 C140.77620487 84.05852474 147.24488336 78.63482732 152.3125 71 C152.69293457 70.43821045 153.07336914 69.8764209 153.46533203 69.29760742 C155.40872522 66.42488696 157.30785048 63.52546351 159.19140625 60.61328125 C170.8318962 43.0171918 188.69606851 30.78008779 209.50366211 26.40136719 C222.78967005 24.265211 237.93127091 24.55166849 250 31 C254.69038567 34.96731121 254.69038567 34.96731121 255.62890625 38.09765625 C255.51915668 41.34495234 255.15713129 43.7198964 253.5625 46.5625 C249.60532735 48.78237734 246.24075543 47.95357769 242 47 C239.64425452 46.31792951 237.29022544 45.62991603 234.9375 44.9375 C225.35013254 42.19807815 213.51288833 40.84162298 204.07421875 44.796875 C194.59052958 50.29777192 190.31961463 57.53740051 185.859375 67.125 C178.71999478 82.37932792 166.27869321 91.66593907 152.54003906 100.59960938 C128.5730429 115.38451051 128.5730429 115.38451051 114.5625 138.9375 C113.671875 141.1328125 113.671875 141.1328125 112 143 C107.38533205 144.72791379 102.74009442 145.64894757 97.91455078 146.58496094 C92.55578681 147.74664147 88.27409606 149.66219914 84.5 153.625 C81.38637031 158.55491367 81.41126335 162.25506226 82.61328125 167.859375 C85.08909798 176.80285394 89.18569018 184.16748826 94 192 C95.12670406 193.85313167 96.25189956 195.70718212 97.375 197.5625 C97.83648438 198.30628906 98.29796875 199.05007813 98.7734375 199.81640625 C101.06559217 203.89702555 102.23522705 207.46342574 102.4921875 212.140625 C102.5550293 213.12039307 102.61787109 214.10016113 102.68261719 215.10961914 C102.74610352 216.14594482 102.80958984 217.18227051 102.875 218.25 C105.1453661 249.06906142 118.79404989 273.85498052 133.86328125 300.265625 C139.24542734 309.82794907 143.18043739 318.79261001 140.23828125 329.8671875 C138.48213656 334.98985462 136.69296816 339.99049171 133 344 C129.75 345.3125 129.75 345.3125 126 345 C121.33426489 342.09769233 117.91195512 337.9395555 114.4375 333.75 C111.19596564 329.96453471 108.83988345 328.29639735 104 327 C98.92992748 327.16310939 98.92992748 327.16310939 95 330 C94.85805622 333.00299817 95.00562093 335.95390157 95.125 338.95703125 C94.99149628 342.2070125 94.64569325 344.19350526 93 347 C90.85546875 348.64453125 90.85546875 348.64453125 88 349 C85.12954577 347.62626539 82.77350171 345.6868822 80.3125 343.6875 C79.24684814 342.8524292 79.24684814 342.8524292 78.15966797 342.00048828 C72.55563054 337.56592263 67.1671124 332.93785485 62 328 C61.18273438 327.2575 60.36546875 326.515 59.5234375 325.75 C49.58526889 316.39642954 41.81556034 304.78614296 37 292 C36.63261719 291.05511719 36.26523438 290.11023437 35.88671875 289.13671875 C30.52984623 273.80632358 30.7219328 257.95945455 32 242 C33.16608389 222.17657385 27.14345467 202.63734972 22.39147949 183.58517456 C20.55959391 176.23625113 18.76363268 168.87851585 16.97265625 161.51953125 C16.70846201 160.43452174 16.70846201 160.43452174 16.43893051 159.32759285 C10.1652744 133.52287614 4.31845545 107.37194905 1 81 C0.91426727 80.33719025 0.82853455 79.67438049 0.74020386 78.9914856 C-0.9912148 65.24198451 -1.2817375 51.6160995 -1.20581055 37.76879883 C-1.18732112 34.27873549 -1.18530331 30.78893585 -1.18554688 27.29882812 C-1.1806377 25.04947689 -1.17481202 22.80012743 -1.16796875 20.55078125 C-1.16685593 19.52253738 -1.1657431 18.49429352 -1.16459656 17.43489075 C-1.12610028 11.546601 -0.7567349 5.84063471 0 0 Z " fill="#383838" transform="translate(1035,1310)"/>
<path d="M0 0 C1.23447876 -0.032146 1.23447876 -0.032146 2.49389648 -0.06494141 C9.14336345 -0.10098911 15.20808191 0.59791119 20.63012695 4.73071289 C25.89223065 10.02977854 27.88949212 16.40252234 30.05834961 23.41271973 C31.16610387 26.97777984 32.34790305 30.51803329 33.53125 34.05859375 C33.77991821 34.80448761 34.02858643 35.55038147 34.28479004 36.31887817 C37.22600265 45.0231554 40.69138478 53.50686861 44.1875 62 C44.83211734 63.57198618 45.47664883 65.14400758 46.12109375 66.71606445 C47.37924017 69.78137501 48.64003934 72.84557935 49.90234375 75.90917969 C63.57679658 109.12618364 74.24025432 140.68417757 75.25 176.8125 C75.27018188 177.52043701 75.29036377 178.22837402 75.31115723 178.95776367 C75.41037317 182.47187715 75.50447099 185.98607144 75.59228516 189.50048828 C75.64951576 191.75419998 75.71047938 194.00782796 75.77880859 196.26123047 C76.11622667 207.61094283 75.83982176 215.78377012 67.78515625 224.48828125 C61.2817206 229.95019834 52.32389923 231.60888168 44.02734375 231.45703125 C38.51059149 230.96890459 34.86111634 229.58167302 31.1640625 225.38671875 C27.80663918 220.43541229 26.69599716 214.871705 25.3125 209.125 C23.2915467 201.15912628 21.14013363 193.36301834 18.375 185.625 C9.41071207 159.69187212 4.21321003 132.38547036 -1.51358032 105.60683441 C-9.04582028 70.16873209 -9.04582028 70.16873209 -19.2421875 35.42578125 C-19.49598175 34.67095963 -19.749776 33.916138 -20.01126099 33.13844299 C-21.25122472 29.46716192 -22.51100287 25.80471375 -23.80908203 22.15356445 C-28.28254696 9.41889242 -28.28254696 9.41889242 -27.3125 3.25 C-20.25952785 -1.45198143 -8.36932021 0.12006291 0 0 Z " fill="#383838" transform="translate(1514.3125,1624.75)"/>
<path d="M0 0 C0.99 0.495 0.99 0.495 2 1 C4.98061702 44.21894674 -18.65283573 91.92271797 -46.47241211 123.95483398 C-78.31160355 159.9763136 -127.68523571 186.28618737 -175.99121094 190.15966797 C-184.06423387 190.62713518 -192.17298456 191.06961489 -198.66796875 185.59375 C-206.34020357 177.56158318 -208.40151051 166.8510351 -208.26953125 156.13671875 C-207.90999399 151.9525388 -207.01370254 149.93835998 -204 147 C-197.34833312 142.947275 -190.39743587 141.61296038 -182.83627319 140.16482544 C-159.81219431 135.71997585 -137.51078995 129.41796068 -116 120 C-115.27167969 119.68595215 -114.54335937 119.3719043 -113.79296875 119.04833984 C-70.50490039 100.22192993 -33.53140342 65.79497916 -14.45703125 22.30078125 C-14.02640381 21.31972412 -13.59577637 20.33866699 -13.15209961 19.32788086 C-12.32070956 17.40555958 -11.50673579 15.47558103 -10.71313477 13.53735352 C-8.07821562 7.39291086 -5.40013583 3.97418309 0 0 Z " fill="#383838" transform="translate(1556,1973)"/>
<path d="M0 0 C2.97 0 5.94 0 9 0 C11.6099678 27.31129852 14.21778493 54.62280165 16.82302856 81.93455124 C18.03268668 94.61531977 19.24305352 107.29601992 20.45507812 119.9765625 C21.51124366 131.02648241 22.56609032 142.07652728 23.6193409 153.12672544 C24.17728249 158.97988899 24.73589281 164.83298702 25.29608154 170.68593597 C25.82300646 176.1915583 26.34817176 181.6973456 26.87197113 187.20326614 C27.06481477 189.22702127 27.25830858 191.25071455 27.45249176 193.27434158 C27.71697475 196.03158858 27.97914385 198.78904602 28.24072266 201.54656982 C28.31854162 202.3520176 28.39636059 203.15746538 28.4765377 203.98732066 C28.79322553 207.34874552 29 210.61966316 29 214 C24.47366445 213.37806076 20.76269684 211.57078264 16.75 209.5 C16.0597876 209.15050293 15.3695752 208.80100586 14.65844727 208.44091797 C10.88609055 206.52015225 7.14378925 204.54851163 3.41796875 202.5390625 C2.66870117 202.13623047 1.91943359 201.73339844 1.14746094 201.31835938 C-0.2891668 200.5425931 -1.72233713 199.76037752 -3.15136719 198.97070312 C-9.60508303 195.47559401 -15.7554222 193.9180162 -23.0625 193.125 C-28.50792224 192.39007054 -31.94197576 191.71985556 -36 188 C-40.25147664 181.62278505 -38.40343806 172.28261485 -36.9821701 165.00169659 C-36.19831351 161.30775761 -35.34179749 157.63260792 -34.4765625 153.95703125 C-34.09804717 152.29712183 -33.72099362 150.63687851 -33.34527588 148.97633362 C-32.54044976 145.43128093 -31.72675262 141.88843653 -30.90570068 138.34710693 C-29.60848535 132.75058123 -28.33134644 127.14960763 -27.05908203 121.54736328 C-26.8437702 120.59930313 -26.62845837 119.65124298 -26.40662193 118.67445374 C-25.96704321 116.7385177 -25.52755443 114.80256125 -25.08815384 112.86658478 C-24.41747616 109.91422984 -23.74491963 106.96230745 -23.07211304 104.01043701 C-18.17570066 82.50090167 -13.51826356 60.94034057 -8.875 39.375 C-7.5464842 33.20557831 -6.21728609 27.03630622 -4.88588715 20.86750603 C-4.37988819 18.51986386 -3.87601947 16.17177198 -3.37237549 13.82362366 C-3.0697819 12.4193452 -2.76711326 11.01508291 -2.46435547 9.61083984 C-2.07399612 7.79366959 -2.07399612 7.79366959 -1.67575073 5.93978882 C-1 3 -1 3 0 0 Z " fill="#383838" transform="translate(649,2309)"/>
<path d="M0 0 C0.99 0.495 0.99 0.495 2 1 C8.04984314 19.48563181 0.04032178 37.31665422 -8.203125 53.72265625 C-17.47193444 71.53145125 -29.40009678 87.02547022 -42.953125 101.765625 C-45.03384891 104.03694957 -47.04638957 106.35881431 -49.0625 108.6875 C-52.09787761 112.10453609 -55.27405504 115.13074407 -58.765625 118.07421875 C-61.42351254 120.36502042 -63.94922897 122.77805547 -66.5 125.1875 C-73.54869437 131.72714085 -81.18222582 137.41806705 -89 143 C-89.60150879 143.4316748 -90.20301758 143.86334961 -90.82275391 144.30810547 C-116.75454015 162.74032989 -147.54355377 178.01714574 -179.875 178.3125 C-180.92558594 178.34150391 -181.97617188 178.37050781 -183.05859375 178.40039062 C-190.9613019 178.46468049 -196.4513913 177.36183982 -202.375 171.75 C-205.76842553 166.00727987 -206.52357575 160.5464608 -205.52734375 154.04296875 C-204.69190265 150.80640804 -203.51622295 149.19363027 -201 147 C-194.66900401 144.24770549 -188.3959103 143.02039335 -181.625 141.8125 C-120.7409549 130.18184939 -63.17913597 96.38055323 -27.61230469 44.99511719 C-19.38384971 32.87750187 -12.02385035 20.17789076 -4.54296875 7.59277344 C-3.03464392 5.05821494 -1.51896766 2.52819166 0 0 Z " fill="#383838" transform="translate(1583,2060)"/>
<path d="M0 0 C1.24130518 3.72391553 0.62192503 4.46450461 -0.9921875 7.9453125 C-1.44529297 8.93136475 -1.89839844 9.91741699 -2.36523438 10.93334961 C-2.86345703 11.98659424 -3.36167969 13.03983887 -3.875 14.125 C-4.63393555 15.7483728 -4.63393555 15.7483728 -5.40820312 17.40454102 C-26.56488955 62.2959692 -56.69468042 100.74688513 -100 126 C-100.88341064 126.52303711 -100.88341064 126.52303711 -101.78466797 127.05664062 C-119.81139433 137.62316109 -139.76865164 144.14702075 -160 149 C-160.86737793 149.21027832 -161.73475586 149.42055664 -162.62841797 149.63720703 C-186.22678696 155.26392782 -186.22678696 155.26392782 -193.125 151.125 C-195.98831371 147.87991113 -196.20390814 145.88865943 -196.3125 141.625 C-196.34988281 140.66851563 -196.38726563 139.71203125 -196.42578125 138.7265625 C-195.87299575 135.18670675 -194.72597088 134.2714028 -192 132 C-189.42822266 131.04541016 -189.42822266 131.04541016 -186.5390625 130.4140625 C-185.47461914 130.17461914 -184.41017578 129.93517578 -183.31347656 129.68847656 C-181.67330566 129.34768066 -181.67330566 129.34768066 -180 129 C-178.98131836 128.78569336 -177.96263672 128.57138672 -176.91308594 128.35058594 C-174.83168745 127.91792456 -172.74963394 127.48840428 -170.66699219 127.06176758 C-135.5002915 119.72537415 -102.17999608 105.49561919 -74 83 C-73.06800781 82.26007812 -72.13601563 81.52015625 -71.17578125 80.7578125 C-56.08883319 68.59567027 -41.90303225 55.3261265 -30 40 C-28.93321204 38.6607247 -27.86542518 37.32224472 -26.796875 35.984375 C-19.87809126 27.26514272 -13.34918388 18.36887843 -7.17480469 9.10546875 C-6.66981445 8.35007812 -6.16482422 7.5946875 -5.64453125 6.81640625 C-5.20471924 6.15068604 -4.76490723 5.48496582 -4.31176758 4.79907227 C-3.00784123 3.01075415 -1.60617009 1.51803198 0 0 Z " fill="#383838" transform="translate(1587,2129)"/>
<path d="M0 0 C0.8971875 0.40089844 1.794375 0.80179688 2.71875 1.21484375 C15.55256346 7.57643232 27.11693431 17.73761516 32.9375 31 C35.45438986 38.76952958 34.43157785 46.6892472 31 54 C29.23926172 56.70882813 28.10987402 57.71121725 24.98828125 58.5234375 C19.78414202 59.31863704 16.03646232 58.59046178 11 57 C2.40747375 55.57174899 -6.07954888 56.21099196 -14.72265625 56.77148438 C-24.36178238 57.28596534 -32.97044665 56.71333604 -41 51 C-44.53103214 47.57498037 -47.94969937 43.90140296 -49 39 C-48.65679657 32.58377006 -47.41560364 26.23213318 -46.1875 19.9375 C-46.03474609 19.09123047 -45.88199219 18.24496094 -45.72460938 17.37304688 C-44.41190654 10.64349912 -42.5664122 4.50060676 -37.5625 -0.375 C-26.67380177 -7.28002814 -11.22148281 -5.14317962 0 0 Z " fill="#383838" transform="translate(646,2558)"/>
<path d="M0 0 C-10.9612344 20.10083099 -24.6483984 38.32773461 -39.1418457 56.00219727 C-44.9942808 63.16507462 -50.53629924 70.53812539 -56 78 C-56.50418457 78.68175293 -57.00836914 79.36350586 -57.52783203 80.06591797 C-70.71034307 97.94242373 -81.12562406 117.21360388 -89 138 C-92.76664122 134.23335878 -92.0950144 127.68406966 -92.25 122.5625 C-91.89722619 94.44642721 -78.99278279 67.7999516 -62 46 C-61.319375 45.09765625 -60.63875 44.1953125 -59.9375 43.265625 C-50.14459152 30.72773459 -18.99750164 -5.89577637 0 0 Z " fill="#383838" transform="translate(1981,973)"/>
<path d="M0 0 C4.17178949 4.03873054 5.07930248 8.13281475 6.125 13.625 C6.28097656 14.34945312 6.43695312 15.07390625 6.59765625 15.8203125 C9.95287579 32.45776477 10.29713433 49.16728418 10.20581055 66.07641602 C10.18765262 69.53344238 10.18530126 72.9901966 10.18554688 76.44726562 C10.16747616 88.08552772 9.9766419 99.70906624 9.55078125 111.33984375 C9.4930378 112.96545982 9.4930378 112.96545982 9.43412781 114.62391663 C9.23682102 119.49216543 8.98143792 124.21220925 8 129 C5.74257187 126.74257187 5.41947895 125.5446531 4.58642578 122.51074219 C4.32455978 121.57109116 4.06269379 120.63144012 3.79289246 119.66331482 C3.51319107 118.63488968 3.23348969 117.60646454 2.9453125 116.546875 C2.3300773 114.3330668 1.71475801 112.11928198 1.09936523 109.90551758 C0.77733124 108.73759674 0.45529724 107.5696759 0.12350464 106.36636353 C-4.82928743 88.42844327 -9.90679738 70.54251322 -15.5625 52.8125 C-15.79749207 52.07422974 -16.03248413 51.33595947 -16.27459717 50.57531738 C-16.95216217 48.45156691 -17.6335241 46.3290774 -18.31640625 44.20703125 C-18.53045105 43.53819916 -18.74449585 42.86936707 -18.96502686 42.18026733 C-20.14697173 38.51920056 -21.39174431 34.89052969 -22.70654297 31.27490234 C-22.98908432 30.47992844 -23.27162567 29.68495453 -23.56272888 28.8658905 C-24.10339451 27.34993383 -24.6585283 25.83902035 -25.2313385 24.33491516 C-27.08935312 19.07354049 -27.41633734 14.44850062 -26 9 C-22.00913852 3.38785104 -15.7636555 1.16494099 -9.375 -0.8125 C-5.99742292 -1.07915082 -3.29234467 -0.83805137 0 0 Z " fill="#383838" transform="translate(1657,2117)"/>
</svg>
